<svg xmlns="http://www.w3.org/2000/svg" viewBox="0 0 692 500" width="692" height="500">
	<style>
		tspan { white-space:pre }
		.shp0 { fill: #cccccc } 
		.shp1 { fill: #3f3d56 } 
		.shp2 { fill: #ffffff } 
		.shp3 { fill: #2f2e41 } 
		.shp4 { fill: #a0616a } 
		.shp5 { fill: #6c63ff } 
		.shp6 { fill: #f2f2f2 } 
		.shp7 { fill: #ffb8b8 } 
		.shp8 { fill: #e6e6e6 } 
	</style>
	<path id="Layer" class="shp0" d="M691 496.04L1 496.04C0.73 496.04 0.48 495.94 0.29 495.75C0.11 495.56 0 495.31 0 495.04C0 494.78 0.11 494.52 0.29 494.34C0.48 494.15 0.73 494.04 1 494.04L691 494.04C691.27 494.04 691.52 494.15 691.71 494.34C691.89 494.52 692 494.78 692 495.04C692 495.31 691.89 495.56 691.71 495.75C691.52 495.94 691.27 496.04 691 496.04Z" />
	<path id="Layer" class="shp0" d="M622.7 321.64L216.7 321.64C214.98 321.64 213.33 322.33 212.11 323.55C210.89 324.76 210.2 326.42 210.2 328.14C210.2 329.87 210.89 331.52 212.11 332.74C213.33 333.96 214.98 334.64 216.7 334.64L228.2 334.64L228.2 490.14C228.2 491.87 228.89 493.52 230.11 494.74C231.33 495.96 232.98 496.64 234.7 496.64C236.43 496.64 238.08 495.96 239.3 494.74C240.52 493.52 241.2 491.87 241.2 490.14L241.3 334.64L597.2 334.64L597.2 490.14C597.2 491.87 597.89 493.52 599.11 494.74C600.33 495.96 601.98 496.64 603.7 496.64C605.43 496.64 607.08 495.96 608.3 494.74C609.52 493.52 610.2 491.87 610.2 490.14L610.2 338.07L612.1 334.64L622.7 334.64C624.43 334.64 626.08 333.96 627.3 332.74C628.52 331.52 629.2 329.87 629.2 328.14C629.2 326.42 628.52 324.76 627.3 323.55C626.08 322.33 624.43 321.64 622.7 321.64L622.7 321.64Z" />
	<path id="Layer" class="shp1" d="M441.79 325.04L318.81 325.04C317.63 325.04 316.47 324.81 315.38 324.36C314.29 323.9 313.3 323.24 312.46 322.41C311.63 321.58 310.97 320.59 310.52 319.5C310.06 318.41 309.83 317.24 309.83 316.06L309.83 248.35C309.83 247.17 310.06 246.01 310.52 244.92C310.97 243.83 311.63 242.84 312.46 242C313.3 241.17 314.29 240.51 315.38 240.06C316.47 239.6 317.63 239.37 318.81 239.37L441.79 239.37C442.97 239.37 444.14 239.6 445.23 240.06C446.32 240.51 447.31 241.17 448.14 242C448.98 242.84 449.64 243.83 450.09 244.92C450.54 246.01 450.77 247.17 450.78 248.35L450.78 316.06C450.77 317.24 450.54 318.41 450.09 319.5C449.64 320.59 448.98 321.58 448.14 322.41C447.31 323.24 446.32 323.9 445.23 324.36C444.14 324.81 442.97 325.04 441.79 325.04L441.79 325.04Z" />
	<path id="Layer" class="shp2" d="M441.79 246.28L318.81 246.28C318.54 246.28 318.27 246.34 318.02 246.44C317.77 246.55 317.54 246.7 317.35 246.89C317.16 247.08 317.01 247.31 316.9 247.56C316.8 247.81 316.74 248.08 316.74 248.35L316.74 316.06C316.74 316.33 316.8 316.6 316.9 316.85C317.01 317.11 317.16 317.33 317.35 317.53C317.54 317.72 317.77 317.87 318.02 317.97C318.27 318.08 318.54 318.13 318.81 318.13L441.79 318.13C442.07 318.13 442.33 318.08 442.58 317.97C442.84 317.87 443.06 317.72 443.26 317.53C443.45 317.33 443.6 317.11 443.7 316.85C443.81 316.6 443.86 316.33 443.86 316.06L443.86 248.35C443.86 248.08 443.81 247.81 443.7 247.56C443.6 247.31 443.45 247.08 443.26 246.89C443.06 246.7 442.84 246.55 442.58 246.44C442.33 246.34 442.07 246.28 441.79 246.28Z" />
	<path id="Layer" class="shp3" d="M390.79 294.22C390.79 294.22 376.07 290.83 367.97 297.05C359.88 303.27 378.28 317.4 378.28 317.4L390.79 294.22Z" />
	<path id="Layer" class="shp4" d="M381.02 287.81C373.34 287.81 367.14 281.6 367.14 273.92C367.14 266.24 373.34 260.04 381.02 260.04C388.7 260.04 394.91 266.24 394.91 273.92C394.91 281.6 388.7 287.81 381.02 287.81Z" />
	<path id="Layer" class="shp3" d="M370.29 254.43C370.75 253.65 371.31 252.93 371.97 252.31C372.62 251.68 373.36 251.14 374.16 250.72C374.97 250.29 375.82 249.98 376.71 249.78C377.6 249.59 378.51 249.52 379.41 249.57C379.89 249.63 380.36 249.71 380.83 249.81C381.3 249.9 381.77 250.01 382.23 250.14C382.69 250.27 383.14 250.42 383.6 250.58C384.05 250.74 384.49 250.92 384.93 251.12L394.01 254.66C396.36 255.58 398.93 256.7 399.95 259C400.89 261.15 400.19 263.62 399.47 265.85L396.08 276.44C395.98 275.84 395.87 275.24 395.74 274.65C395.62 274.06 395.47 273.47 395.31 272.89C395.15 272.3 394.97 271.72 394.78 271.15C394.59 270.57 394.38 270 394.15 269.44C393.92 268.88 393.65 268.34 393.33 267.82C393.01 267.31 392.65 266.82 392.25 266.36C391.85 265.91 391.42 265.48 390.95 265.1C390.48 264.72 389.97 264.38 389.45 264.08C387.09 262.87 384.31 262.89 381.66 263.02C377.91 263.2 373.84 263.68 371.17 266.32C370.82 266.7 370.5 267.09 370.2 267.51C369.91 267.93 369.64 268.37 369.41 268.83C369.17 269.28 368.97 269.75 368.81 270.24C368.64 270.72 368.51 271.22 368.41 271.72C368.31 272.22 368.23 272.73 368.16 273.24C368.08 273.74 368.02 274.25 367.97 274.76C367.93 275.27 367.89 275.78 367.87 276.3C367.84 276.81 367.83 277.32 367.83 277.83C367.44 277.17 367.08 276.5 366.72 275.83C366.37 275.15 366.03 274.47 365.71 273.77C365.38 273.08 365.08 272.38 364.79 271.67C364.49 270.97 364.22 270.26 363.96 269.54C363.75 269 363.56 268.46 363.39 267.91C363.22 267.36 363.08 266.8 362.96 266.24C362.84 265.68 362.74 265.11 362.67 264.54C362.6 263.97 362.55 263.4 362.52 262.82C362.5 262.25 362.53 261.67 362.61 261.1C362.7 260.53 362.83 259.97 363.01 259.43C363.2 258.88 363.43 258.36 363.71 257.86C363.99 257.35 364.32 256.88 364.69 256.44C365.06 256 365.49 255.62 365.97 255.3C366.45 254.99 366.97 254.74 367.52 254.57C368.07 254.4 368.64 254.3 369.21 254.28C369.79 254.27 370.36 254.33 370.92 254.47L370.29 254.43Z" />
	<path id="Layer" class="shp5" d="M414.18 306.26C414.12 306.03 414.02 305.81 413.89 305.6C413.76 305.4 413.6 305.21 413.42 305.06C413.24 304.9 413.03 304.77 412.81 304.67C412.59 304.57 412.35 304.5 412.11 304.47C412.11 304.47 412.1 304.46 412.09 304.46C412.08 304.45 412.07 304.45 412.06 304.44C412.06 304.44 412.05 304.43 412.04 304.43C412.03 304.42 412.02 304.42 412.01 304.41L391.28 292.79C390.99 292.63 390.67 292.52 390.33 292.48C390 292.44 389.66 292.46 389.34 292.54C389.01 292.63 388.7 292.77 388.43 292.97C388.16 293.17 387.93 293.42 387.75 293.7L382.08 302.88L373.54 294.34L373.41 294.21C373.19 293.99 372.94 293.81 372.66 293.68C372.38 293.55 372.08 293.47 371.77 293.45C371.47 293.42 371.16 293.45 370.86 293.53C370.56 293.6 370.28 293.74 370.03 293.91L352.99 305.84C352.96 305.84 352.93 305.85 352.9 305.85C352.5 305.92 352.11 306.06 351.75 306.25C351.39 306.45 351.07 306.71 350.79 307.02C350.52 307.32 350.3 307.67 350.14 308.05C349.99 308.43 349.89 308.83 349.87 309.24L349.43 318.13L417.47 318.13L414.18 306.26Z" />
	<path id="Layer" class="shp1" d="M452.16 316.75L439.03 316.75C439.03 316.57 438.99 316.39 438.93 316.22C438.86 316.06 438.75 315.9 438.63 315.78C438.5 315.65 438.35 315.54 438.18 315.48C438.01 315.41 437.83 315.37 437.65 315.37L433.5 315.37C433.32 315.37 433.14 315.41 432.97 315.48C432.81 315.54 432.65 315.65 432.53 315.78C432.4 315.9 432.3 316.06 432.23 316.22C432.16 316.39 432.12 316.57 432.12 316.75L427.98 316.75C427.98 316.57 427.94 316.39 427.87 316.22C427.8 316.06 427.7 315.9 427.57 315.78C427.44 315.65 427.29 315.54 427.12 315.48C426.96 315.41 426.78 315.37 426.59 315.37L422.45 315.37C422.27 315.37 422.09 315.41 421.92 315.48C421.75 315.54 421.6 315.65 421.47 315.78C421.34 315.9 421.24 316.06 421.17 316.22C421.1 316.39 421.07 316.57 421.07 316.75L416.92 316.75C416.92 316.57 416.89 316.39 416.82 316.22C416.75 316.06 416.64 315.9 416.52 315.78C416.39 315.65 416.24 315.54 416.07 315.48C415.9 315.41 415.72 315.37 415.54 315.37L411.39 315.37C411.21 315.37 411.03 315.41 410.87 315.48C410.7 315.54 410.55 315.65 410.42 315.78C410.29 315.9 410.19 316.06 410.12 316.22C410.05 316.39 410.01 316.57 410.01 316.75L405.87 316.75C405.87 316.57 405.83 316.39 405.76 316.22C405.69 316.06 405.59 315.9 405.46 315.78C405.33 315.65 405.18 315.54 405.01 315.48C404.85 315.41 404.67 315.37 404.49 315.37L400.34 315.37C400.16 315.37 399.98 315.41 399.81 315.48C399.64 315.54 399.49 315.65 399.36 315.78C399.23 315.9 399.13 316.06 399.06 316.22C398.99 316.39 398.96 316.57 398.96 316.75L394.81 316.75C394.81 316.57 394.78 316.39 394.71 316.22C394.64 316.06 394.54 315.9 394.41 315.78C394.28 315.65 394.13 315.54 393.96 315.48C393.79 315.41 393.61 315.37 393.43 315.37L389.28 315.37C389.1 315.37 388.92 315.41 388.76 315.48C388.59 315.54 388.44 315.65 388.31 315.78C388.18 315.9 388.08 316.06 388.01 316.22C387.94 316.39 387.9 316.57 387.9 316.75L383.76 316.75C383.76 316.57 383.72 316.39 383.65 316.22C383.58 316.06 383.48 315.9 383.35 315.78C383.22 315.65 383.07 315.54 382.9 315.48C382.74 315.41 382.56 315.37 382.38 315.37L378.23 315.37C378.05 315.37 377.87 315.41 377.7 315.48C377.53 315.54 377.38 315.65 377.25 315.78C377.13 315.9 377.02 316.06 376.95 316.22C376.88 316.39 376.85 316.57 376.85 316.75L372.7 316.75C372.7 316.57 372.67 316.39 372.6 316.22C372.53 316.06 372.43 315.9 372.3 315.78C372.17 315.65 372.02 315.54 371.85 315.48C371.68 315.41 371.5 315.37 371.32 315.37L367.18 315.37C366.99 315.37 366.81 315.41 366.65 315.48C366.48 315.54 366.33 315.65 366.2 315.78C366.07 315.9 365.97 316.06 365.9 316.22C365.83 316.39 365.79 316.57 365.79 316.75L361.65 316.75C361.65 316.57 361.61 316.39 361.54 316.22C361.47 316.06 361.37 315.9 361.24 315.78C361.12 315.65 360.96 315.54 360.8 315.48C360.63 315.41 360.45 315.37 360.27 315.37L356.12 315.37C355.94 315.37 355.76 315.41 355.59 315.48C355.42 315.54 355.27 315.65 355.14 315.78C355.02 315.9 354.91 316.06 354.84 316.22C354.78 316.39 354.74 316.57 354.74 316.75L350.59 316.75C350.59 316.57 350.56 316.39 350.49 316.22C350.42 316.06 350.32 315.9 350.19 315.78C350.06 315.65 349.91 315.54 349.74 315.48C349.57 315.41 349.39 315.37 349.21 315.37L345.07 315.37C344.89 315.37 344.71 315.41 344.54 315.48C344.37 315.54 344.22 315.65 344.09 315.78C343.96 315.9 343.86 316.06 343.79 316.22C343.72 316.39 343.68 316.57 343.68 316.75L339.54 316.75C339.54 316.57 339.5 316.39 339.43 316.22C339.36 316.06 339.26 315.9 339.13 315.78C339.01 315.65 338.85 315.54 338.69 315.48C338.52 315.41 338.34 315.37 338.16 315.37L334.01 315.37C333.83 315.37 333.65 315.41 333.48 315.48C333.32 315.54 333.16 315.65 333.04 315.78C332.91 315.9 332.81 316.06 332.74 316.22C332.67 316.39 332.63 316.57 332.63 316.75L328.49 316.75C328.48 316.57 328.45 316.39 328.38 316.22C328.31 316.06 328.21 315.9 328.08 315.78C327.95 315.65 327.8 315.54 327.63 315.48C327.46 315.41 327.28 315.37 327.1 315.37L322.96 315.37C322.78 315.37 322.6 315.41 322.43 315.48C322.26 315.54 322.11 315.65 321.98 315.78C321.85 315.9 321.75 316.06 321.68 316.22C321.61 316.39 321.58 316.57 321.58 316.75L308.45 316.75C307.35 316.75 306.3 317.19 305.52 317.97C304.75 318.75 304.31 319.8 304.31 320.9C304.31 322 304.75 323.05 305.52 323.83C306.3 324.6 307.35 325.04 308.45 325.04L452.16 325.04C453.26 325.04 454.31 324.61 455.09 323.83C455.87 323.05 456.3 322 456.3 320.9C456.3 319.8 455.87 318.74 455.09 317.97C454.31 317.19 453.26 316.75 452.16 316.75L452.16 316.75Z" />
	<path id="Layer" class="shp6" d="M287.08 292.68L287.08 320.2L218.12 320.2C214.38 320.33 210.76 318.94 208.07 316.35C205.38 313.75 203.87 310.18 203.87 306.44C203.87 302.71 205.38 299.13 208.07 296.54C210.76 293.94 214.38 292.55 218.12 292.68L287.08 292.68Z" />
	<path id="Layer" class="shp5" d="M288.77 319.99C288.77 320.13 288.75 320.27 288.69 320.4C288.64 320.53 288.56 320.64 288.46 320.74C288.36 320.84 288.25 320.92 288.12 320.97C287.99 321.02 287.85 321.05 287.71 321.05L216.89 321.05C213.04 321.05 209.35 319.52 206.63 316.8C203.91 314.08 202.38 310.39 202.38 306.55C202.38 302.7 203.91 299.01 206.63 296.29C209.35 293.57 213.04 292.04 216.89 292.04L287.71 292.04C288 292.04 288.26 292.15 288.46 292.35C288.66 292.55 288.77 292.82 288.77 293.1C288.77 293.38 288.66 293.65 288.46 293.85C288.26 294.05 288 294.16 287.71 294.16L216.89 294.16C213.61 294.16 210.46 295.47 208.14 297.79C205.82 300.11 204.51 303.26 204.51 306.55C204.51 309.83 205.82 312.98 208.14 315.3C210.46 317.62 213.61 318.93 216.89 318.93L287.71 318.93C287.85 318.93 287.99 318.96 288.12 319.01C288.25 319.07 288.36 319.15 288.46 319.24C288.56 319.34 288.64 319.46 288.69 319.59C288.75 319.72 288.77 319.85 288.77 319.99L288.77 319.99Z" />
	<path id="Layer" class="shp0" d="M287.08 299.03L212.97 299.03C212.91 299.03 212.86 299.01 212.82 298.97C212.78 298.93 212.76 298.88 212.76 298.82C212.76 298.76 212.78 298.71 212.82 298.67C212.86 298.63 212.91 298.61 212.97 298.61L287.08 298.61C287.13 298.61 287.19 298.63 287.23 298.67C287.27 298.71 287.29 298.76 287.29 298.82C287.29 298.87 287.27 298.93 287.23 298.97C287.19 299.01 287.13 299.03 287.08 299.03Z" />
	<path id="Layer" class="shp0" d="M287.08 304.11L212.97 304.11C212.91 304.11 212.86 304.09 212.82 304.05C212.78 304.01 212.76 303.96 212.76 303.9C212.76 303.84 212.78 303.79 212.82 303.75C212.86 303.71 212.91 303.69 212.97 303.69L287.08 303.69C287.13 303.69 287.19 303.71 287.23 303.75C287.27 303.79 287.29 303.84 287.29 303.9C287.29 303.96 287.27 304.01 287.23 304.05C287.19 304.09 287.13 304.11 287.08 304.11L287.08 304.11Z" />
	<path id="Layer" class="shp0" d="M287.08 309.19L212.97 309.19C212.91 309.19 212.86 309.17 212.82 309.13C212.78 309.09 212.76 309.04 212.76 308.98C212.76 308.93 212.78 308.87 212.82 308.83C212.86 308.79 212.91 308.77 212.97 308.77L287.08 308.77C287.13 308.77 287.19 308.79 287.23 308.83C287.27 308.87 287.29 308.93 287.29 308.98C287.29 309.04 287.27 309.09 287.23 309.13C287.19 309.17 287.13 309.19 287.08 309.19L287.08 309.19Z" />
	<path id="Layer" class="shp0" d="M287.08 314.28L212.97 314.28C212.91 314.28 212.86 314.25 212.82 314.21C212.78 314.17 212.76 314.12 212.76 314.06C212.76 314.01 212.78 313.95 212.82 313.91C212.86 313.87 212.91 313.85 212.97 313.85L287.08 313.85C287.13 313.85 287.19 313.87 287.23 313.91C287.27 313.95 287.29 314.01 287.29 314.06C287.29 314.12 287.27 314.17 287.23 314.21C287.19 314.25 287.13 314.27 287.08 314.28Z" />
	<path id="Layer" class="shp6" d="M274.08 263.68L274.08 291.2L205.12 291.2C201.38 291.33 197.76 289.94 195.07 287.35C192.38 284.75 190.87 281.18 190.87 277.44C190.87 273.71 192.38 270.13 195.07 267.54C197.76 264.94 201.38 263.55 205.12 263.68L274.08 263.68Z" />
	<path id="Layer" class="shp1" d="M275.77 290.99C275.77 291.13 275.75 291.27 275.69 291.4C275.64 291.53 275.56 291.64 275.46 291.74C275.36 291.84 275.25 291.92 275.12 291.97C274.99 292.02 274.85 292.05 274.71 292.05L203.89 292.05C200.04 292.05 196.35 290.52 193.63 287.8C190.91 285.08 189.38 281.39 189.38 277.55C189.38 273.7 190.91 270.01 193.63 267.29C196.35 264.57 200.04 263.04 203.89 263.04L274.71 263.04C275 263.04 275.26 263.15 275.46 263.35C275.66 263.55 275.77 263.82 275.77 264.1C275.77 264.38 275.66 264.65 275.46 264.85C275.26 265.05 275 265.16 274.71 265.16L203.89 265.16C200.61 265.16 197.46 266.47 195.14 268.79C192.82 271.11 191.51 274.26 191.51 277.55C191.51 280.83 192.82 283.98 195.14 286.3C197.46 288.62 200.61 289.93 203.89 289.93L274.71 289.93C274.85 289.93 274.99 289.96 275.12 290.01C275.25 290.07 275.36 290.15 275.46 290.24C275.56 290.34 275.64 290.46 275.69 290.59C275.75 290.72 275.77 290.85 275.77 290.99L275.77 290.99Z" />
	<path id="Layer" class="shp0" d="M274.08 270.03L199.97 270.03C199.91 270.03 199.86 270.01 199.82 269.97C199.78 269.93 199.76 269.88 199.76 269.82C199.76 269.76 199.78 269.71 199.82 269.67C199.86 269.63 199.91 269.61 199.97 269.61L274.08 269.61C274.13 269.61 274.19 269.63 274.23 269.67C274.27 269.71 274.29 269.76 274.29 269.82C274.29 269.87 274.27 269.93 274.23 269.97C274.19 270.01 274.13 270.03 274.08 270.03Z" />
	<path id="Layer" class="shp0" d="M274.08 275.11L199.97 275.11C199.91 275.11 199.86 275.09 199.82 275.05C199.78 275.01 199.76 274.96 199.76 274.9C199.76 274.84 199.78 274.79 199.82 274.75C199.86 274.71 199.91 274.69 199.97 274.69L274.08 274.69C274.13 274.69 274.19 274.71 274.23 274.75C274.27 274.79 274.29 274.84 274.29 274.9C274.29 274.96 274.27 275.01 274.23 275.05C274.19 275.09 274.13 275.11 274.08 275.11L274.08 275.11Z" />
	<path id="Layer" class="shp0" d="M274.08 280.19L199.97 280.19C199.91 280.19 199.86 280.17 199.82 280.13C199.78 280.09 199.76 280.04 199.76 279.98C199.76 279.93 199.78 279.87 199.82 279.83C199.86 279.79 199.91 279.77 199.97 279.77L274.08 279.77C274.13 279.77 274.19 279.79 274.23 279.83C274.27 279.87 274.29 279.93 274.29 279.98C274.29 280.04 274.27 280.09 274.23 280.13C274.19 280.17 274.13 280.19 274.08 280.19L274.08 280.19Z" />
	<path id="Layer" class="shp0" d="M274.08 285.28L199.97 285.28C199.91 285.28 199.86 285.25 199.82 285.21C199.78 285.17 199.76 285.12 199.76 285.06C199.76 285.01 199.78 284.95 199.82 284.91C199.86 284.87 199.91 284.85 199.97 284.85L274.08 284.85C274.13 284.85 274.19 284.87 274.23 284.91C274.27 284.95 274.29 285.01 274.29 285.06C274.29 285.12 274.27 285.17 274.23 285.21C274.19 285.25 274.13 285.27 274.08 285.28Z" />
	<path id="Layer" class="shp0" d="M354.3 418.04L354.3 394.04C354.3 393.52 354.2 393 354 392.51C353.8 392.03 353.5 391.59 353.13 391.21C352.76 390.84 352.32 390.55 351.83 390.35C351.35 390.15 350.83 390.04 350.3 390.04L259.3 390.04C258.78 390.04 258.26 390.15 257.77 390.35C257.29 390.55 256.85 390.84 256.47 391.21C256.1 391.59 255.81 392.03 255.61 392.51C255.41 393 255.3 393.52 255.3 394.04L255.3 418.04L354.3 418.04Z" />
	<path id="Layer" class="shp0" d="M255.3 427.04L354.3 427.04L354.3 458.04L255.3 458.04L255.3 427.04Z" />
	<path id="Layer" class="shp0" d="M255.3 467.04L255.3 491.04C255.3 491.57 255.41 492.09 255.61 492.57C255.81 493.06 256.1 493.5 256.47 493.87C256.85 494.24 257.29 494.54 257.77 494.74C258.26 494.94 258.78 495.04 259.3 495.04L350.3 495.04C350.83 495.04 351.35 494.94 351.83 494.74C352.32 494.54 352.76 494.24 353.13 493.87C353.5 493.5 353.8 493.06 354 492.57C354.2 492.09 354.3 491.57 354.3 491.04L354.3 467.04L255.3 467.04Z" />
	<path id="Layer" class="shp2" d="M304.3 408.04C302.64 408.04 301.3 406.7 301.3 405.04C301.3 403.38 302.64 402.04 304.3 402.04C305.96 402.04 307.3 403.38 307.3 405.04C307.3 406.7 305.96 408.04 304.3 408.04Z" />
	<path id="Layer" class="shp2" d="M304.3 448.04C302.64 448.04 301.3 446.7 301.3 445.04C301.3 443.38 302.64 442.04 304.3 442.04C305.96 442.04 307.3 443.38 307.3 445.04C307.3 446.7 305.96 448.04 304.3 448.04Z" />
	<path id="Layer" class="shp2" d="M304.46 487.2C302.8 487.2 301.46 485.86 301.46 484.2C301.46 482.54 302.8 481.2 304.46 481.2C306.12 481.2 307.46 482.54 307.46 484.2C307.46 485.86 306.12 487.2 304.46 487.2Z" />
	<path id="Layer" class="shp6" d="M343.08 362.68L343.08 390.2L274.12 390.2C270.38 390.33 266.76 388.94 264.07 386.35C261.38 383.75 259.87 380.18 259.87 376.44C259.87 372.71 261.38 369.13 264.07 366.54C266.76 363.94 270.38 362.55 274.12 362.68L343.08 362.68Z" />
	<path id="Layer" class="shp1" d="M344.77 389.99C344.77 390.13 344.75 390.27 344.69 390.4C344.64 390.53 344.56 390.64 344.46 390.74C344.36 390.84 344.25 390.92 344.12 390.97C343.99 391.02 343.85 391.05 343.71 391.05L272.89 391.05C269.04 391.05 265.35 389.53 262.62 386.81C259.9 384.09 258.37 380.4 258.37 376.55C258.37 372.7 259.9 369.01 262.62 366.29C265.35 363.57 269.04 362.04 272.89 362.04L343.71 362.04C344 362.04 344.26 362.15 344.46 362.35C344.66 362.55 344.77 362.82 344.77 363.1C344.77 363.38 344.66 363.65 344.46 363.85C344.26 364.05 344 364.16 343.71 364.16L272.89 364.16C269.61 364.16 266.46 365.47 264.14 367.79C261.82 370.11 260.51 373.26 260.51 376.55C260.51 379.83 261.82 382.98 264.14 385.3C266.46 387.62 269.61 388.93 272.89 388.93L343.71 388.93C343.85 388.93 343.99 388.96 344.12 389.01C344.25 389.07 344.36 389.15 344.46 389.24C344.56 389.34 344.64 389.46 344.69 389.59C344.75 389.72 344.77 389.85 344.77 389.99L344.77 389.99Z" />
	<path id="Layer" class="shp0" d="M343.08 369.03L268.97 369.03C268.91 369.03 268.86 369.01 268.82 368.97C268.78 368.93 268.76 368.88 268.76 368.82C268.76 368.76 268.78 368.71 268.82 368.67C268.86 368.63 268.91 368.61 268.97 368.61L343.08 368.61C343.13 368.61 343.19 368.63 343.23 368.67C343.27 368.71 343.29 368.76 343.29 368.82C343.29 368.87 343.27 368.93 343.23 368.97C343.19 369.01 343.13 369.03 343.08 369.03Z" />
	<path id="Layer" class="shp0" d="M343.08 374.11L268.97 374.11C268.91 374.11 268.86 374.09 268.82 374.05C268.78 374.01 268.76 373.96 268.76 373.9C268.76 373.84 268.78 373.79 268.82 373.75C268.86 373.71 268.91 373.69 268.97 373.69L343.08 373.69C343.13 373.69 343.19 373.71 343.23 373.75C343.27 373.79 343.29 373.84 343.29 373.9C343.29 373.96 343.27 374.01 343.23 374.05C343.19 374.09 343.13 374.11 343.08 374.11Z" />
	<path id="Layer" class="shp0" d="M343.08 379.19L268.97 379.19C268.91 379.19 268.86 379.17 268.82 379.13C268.78 379.09 268.76 379.04 268.76 378.98C268.76 378.93 268.78 378.87 268.82 378.83C268.86 378.79 268.91 378.77 268.97 378.77L343.08 378.77C343.13 378.77 343.19 378.79 343.23 378.83C343.27 378.87 343.29 378.93 343.29 378.98C343.29 379.04 343.27 379.09 343.23 379.13C343.19 379.17 343.13 379.19 343.08 379.19Z" />
	<path id="Layer" class="shp0" d="M343.08 384.28L268.97 384.28C268.91 384.28 268.86 384.25 268.82 384.21C268.78 384.17 268.76 384.12 268.76 384.06C268.76 384.01 268.78 383.95 268.82 383.91C268.86 383.87 268.91 383.85 268.97 383.85L343.08 383.85C343.13 383.85 343.19 383.87 343.23 383.91C343.27 383.95 343.29 384.01 343.29 384.06C343.29 384.12 343.27 384.17 343.23 384.21C343.19 384.25 343.13 384.27 343.08 384.28Z" />
	<path id="Layer" class="shp1" d="M505.56 313.04L474.14 313.04C474.07 313.04 473.99 313.05 473.92 313.06C473.85 313.06 473.77 313.08 473.7 313.09C473.63 313.11 473.56 313.13 473.49 313.16C473.42 313.18 473.35 313.21 473.28 313.24L465.35 317.21C465.09 317.32 464.87 317.51 464.71 317.75C464.56 317.98 464.47 318.26 464.47 318.54C464.47 318.83 464.56 319.1 464.71 319.34C464.87 319.58 465.09 319.76 465.35 319.87L473.28 323.84C473.35 323.88 473.42 323.9 473.49 323.93C473.56 323.95 473.63 323.98 473.7 323.99C473.77 324.01 473.85 324.02 473.92 324.03C473.99 324.04 474.07 324.04 474.14 324.04L505.56 324.04C505.78 324.06 505.99 324.03 506.2 323.96C506.4 323.89 506.59 323.78 506.75 323.64C506.91 323.49 507.04 323.32 507.14 323.13C507.23 322.94 507.29 322.73 507.3 322.51L507.3 314.57C507.29 314.36 507.23 314.15 507.14 313.96C507.04 313.76 506.91 313.59 506.75 313.45C506.59 313.31 506.4 313.2 506.2 313.13C505.99 313.06 505.78 313.03 505.56 313.04Z" />
	<path id="Layer" class="shp5" d="M507.3 314.57L507.3 322.51C507.29 322.73 507.23 322.94 507.14 323.13C507.04 323.32 506.91 323.49 506.75 323.64C506.59 323.78 506.4 323.89 506.2 323.96C505.99 324.03 505.78 324.06 505.56 324.04L499.3 324.04L499.3 313.04L505.56 313.04C505.78 313.03 505.99 313.06 506.2 313.13C506.4 313.2 506.59 313.31 506.75 313.45C506.91 313.59 507.04 313.76 507.14 313.96C507.23 314.15 507.29 314.36 507.3 314.57L507.3 314.57Z" />
	<path id="Layer" class="shp7" d="M505.33 253.64C506.75 253.03 508.29 252.72 509.84 252.74C511.39 252.76 512.91 253.11 514.32 253.77C515.73 254.42 516.98 255.36 517.99 256.53C519.01 257.7 519.77 259.07 520.22 260.56C520.25 260.68 520.28 260.79 520.32 260.91C520.35 261.03 520.38 261.15 520.4 261.27C520.43 261.39 520.45 261.51 520.48 261.63C520.5 261.75 520.52 261.87 520.54 261.99L564.48 283.78L574.64 277.04L587.3 291.61L571.77 304.22C570.84 304.96 569.8 305.56 568.68 305.98C567.57 306.39 566.39 306.63 565.2 306.68C564.01 306.72 562.82 306.58 561.68 306.25C560.53 305.92 559.45 305.4 558.47 304.73L513.89 273.9C513.81 273.94 513.72 273.97 513.64 274C513.56 274.04 513.47 274.07 513.39 274.1C513.3 274.13 513.22 274.16 513.13 274.19C513.05 274.22 512.96 274.25 512.87 274.27C511.39 274.72 509.83 274.85 508.29 274.65C506.75 274.46 505.27 273.94 503.95 273.13C502.63 272.32 501.49 271.24 500.61 269.96C499.74 268.69 499.14 267.24 498.86 265.71C498.84 265.6 498.82 265.49 498.81 265.38C498.79 265.27 498.77 265.16 498.76 265.04C498.75 264.93 498.74 264.82 498.73 264.71C498.72 264.6 498.71 264.48 498.7 264.37C498.64 263.25 498.75 262.13 499.03 261.05C499.3 259.96 499.74 258.92 500.33 257.97C500.92 257.01 501.65 256.16 502.5 255.42C503.34 254.69 504.3 254.09 505.33 253.64Z" />
	<path id="Layer" class="shp1" d="M596.84 387.79L548.83 387.79C548.83 389.17 499.35 390.29 499.35 390.29C499.16 390.44 498.97 390.59 498.78 390.75C498.6 390.9 498.42 391.06 498.24 391.23C498.06 391.4 497.89 391.57 497.73 391.75C497.56 391.92 497.4 392.11 497.24 392.29C496.78 392.85 496.36 393.44 496 394.07C495.64 394.7 495.33 395.35 495.08 396.04C494.84 396.72 494.65 397.42 494.53 398.13C494.4 398.84 494.34 399.57 494.34 400.29L494.34 402.29C494.34 403.93 494.67 405.56 495.29 407.07C495.92 408.59 496.84 409.97 498 411.13C499.16 412.29 500.54 413.21 502.06 413.84C503.57 414.47 505.2 414.79 506.84 414.79L596.84 414.79C598.48 414.79 600.11 414.47 601.62 413.84C603.14 413.21 604.52 412.29 605.68 411.13C606.84 409.97 607.76 408.59 608.39 407.07C609.02 405.56 609.34 403.93 609.34 402.29L609.34 400.29C609.34 398.65 609.01 397.03 608.38 395.51C607.76 394 606.84 392.62 605.67 391.46C604.51 390.3 603.14 389.38 601.62 388.75C600.11 388.12 598.48 387.79 596.84 387.79L596.84 387.79Z" />
	<path id="Layer" class="shp1" d="M557.62 498.3L544.62 498.3L544.62 414.3L557.62 414.3L557.62 498.3Z" />
	<path id="Layer" class="shp1" d="M507.62 497.84C507.62 499.24 527.32 498.38 551.62 498.38C575.92 498.38 595.62 499.24 595.62 497.84C595.62 496.43 575.92 485.3 551.62 485.3C527.32 485.3 507.62 496.43 507.62 497.84Z" />
	<path id="Layer" class="shp7" d="M519.35 487.99L507.09 487.99L501.26 456.19L519.36 456.2L519.35 487.99L519.35 487.99Z" />
	<path id="Layer" class="shp3" d="M522.48 499.88L482.95 499.88L482.95 499.38C482.95 497.35 483.35 495.35 484.12 493.49C484.89 491.62 486.03 489.92 487.46 488.5C488.88 487.07 490.58 485.93 492.45 485.16C494.31 484.39 496.32 483.99 498.34 483.99L498.34 483.99L522.48 483.99L522.48 499.88Z" />
	<path id="Layer" class="shp3" d="M501.02 468.27L476.58 413.47C475.56 411.18 474.99 408.72 474.88 406.22C474.77 403.72 475.13 401.22 475.94 398.85C476.75 396.48 478 394.29 479.62 392.38C481.23 390.47 483.19 388.87 485.39 387.68L538.41 359.26L562.6 357.2L584.91 355.17L585.07 355.44C585.28 355.79 590.08 364.08 586.83 373.16C584.37 380.06 577.98 385.44 567.82 389.17C544.1 397.86 516.71 405.29 506.03 408.08C505.79 408.14 505.57 408.23 505.35 408.34C505.13 408.44 504.93 408.58 504.74 408.73C504.55 408.88 504.37 409.05 504.22 409.24C504.06 409.42 503.93 409.63 503.82 409.84C503.71 410.06 503.62 410.28 503.55 410.51C503.49 410.74 503.44 410.98 503.43 411.22C503.41 411.46 503.42 411.7 503.45 411.94C503.48 412.18 503.54 412.42 503.62 412.64L526.33 463.66C526.57 464.3 526.65 465 526.58 465.68C526.51 466.37 526.28 467.03 525.91 467.61C525.54 468.19 525.04 468.68 524.46 469.04C523.87 469.4 523.21 469.62 522.52 469.69L505.55 470.92C505.41 470.94 505.27 470.94 505.12 470.94C504.69 470.94 504.26 470.88 503.85 470.76C503.43 470.63 503.04 470.45 502.67 470.22C502.31 469.98 501.99 469.69 501.71 469.37C501.42 469.04 501.19 468.67 501.02 468.27L501.02 468.27Z" />
	<path id="Layer" class="shp7" d="M525.35 487.99L513.09 487.99L507.26 456.19L525.36 456.2L525.35 487.99L525.35 487.99Z" />
	<path id="Layer" class="shp3" d="M528.48 499.88L488.95 499.88L488.95 499.38C488.95 497.35 489.35 495.35 490.12 493.49C490.89 491.62 492.03 489.92 493.46 488.5C494.88 487.07 496.58 485.93 498.45 485.16C500.31 484.39 502.32 483.99 504.34 483.99L504.34 483.99L528.48 483.99L528.48 499.88Z" />
	<path id="Layer" class="shp3" d="M508.02 471.27L483.58 416.47C482.56 414.18 481.99 411.72 481.88 409.22C481.77 406.72 482.13 404.22 482.94 401.85C483.75 399.48 485 397.29 486.62 395.38C488.23 393.47 490.19 391.87 492.39 390.68L545.41 362.26L569.6 360.2L591.91 358.17L592.07 358.44C592.28 358.79 597.08 367.08 593.83 376.16C591.37 383.06 584.98 388.44 574.82 392.17C551.1 400.86 523.71 408.29 513.03 411.08C512.79 411.14 512.57 411.23 512.35 411.34C512.13 411.44 511.93 411.58 511.74 411.73C511.55 411.88 511.37 412.05 511.22 412.24C511.06 412.42 510.93 412.63 510.82 412.84C510.71 413.06 510.62 413.28 510.55 413.51C510.49 413.74 510.44 413.98 510.43 414.22C510.41 414.46 510.42 414.7 510.45 414.94C510.48 415.18 510.54 415.42 510.62 415.64L533.33 466.66C533.57 467.3 533.65 468 533.58 468.68C533.51 469.37 533.28 470.03 532.91 470.61C532.54 471.19 532.04 471.68 531.46 472.04C530.87 472.4 530.21 472.62 529.52 472.69L512.55 473.92C512.41 473.94 512.27 473.94 512.12 473.94C511.69 473.94 511.26 473.88 510.85 473.76C510.43 473.63 510.04 473.45 509.67 473.22C509.31 472.98 508.99 472.69 508.71 472.37C508.42 472.04 508.19 471.67 508.02 471.27L508.02 471.27Z" />
	<path id="Layer" class="shp0" d="M495.83 303.84C493.27 300.44 490.84 296.93 488.54 293.33C486.25 289.74 484.09 286.06 482.08 282.3C480.06 278.54 478.19 274.71 476.47 270.8C474.75 266.9 473.18 262.93 471.76 258.91C471.6 258.43 471.52 257.93 471.53 257.43C471.54 256.92 471.64 256.42 471.83 255.95C472.01 255.48 472.28 255.05 472.61 254.67C472.95 254.29 473.35 253.97 473.79 253.73L508.94 234.9C509.22 234.75 509.52 234.63 509.83 234.54C510.14 234.46 510.46 234.41 510.78 234.4C511.1 234.38 511.43 234.41 511.74 234.47C512.06 234.53 512.37 234.62 512.66 234.75C512.96 234.88 513.25 235.05 513.51 235.24C513.77 235.43 514.01 235.66 514.23 235.91C514.44 236.16 514.62 236.43 514.77 236.72C514.92 237.01 515.04 237.32 515.12 237.63C516.14 241.5 517.39 245.3 518.85 249.02C520.31 252.75 521.99 256.38 523.88 259.9C525.77 263.42 527.86 266.84 530.15 270.11C532.44 273.39 534.91 276.54 537.57 279.53C537.79 279.77 537.98 280.04 538.14 280.32C538.29 280.61 538.42 280.91 538.51 281.23C538.6 281.54 538.65 281.87 538.67 282.19C538.69 282.52 538.66 282.85 538.61 283.17C538.55 283.49 538.46 283.8 538.33 284.1C538.21 284.39 538.05 284.67 537.86 284.93C537.67 285.19 537.45 285.43 537.21 285.64C536.97 285.86 536.7 286.04 536.42 286.19L501.27 305.02C500.83 305.26 500.34 305.42 499.84 305.49C499.34 305.56 498.83 305.54 498.34 305.43C497.84 305.32 497.37 305.13 496.95 304.86C496.52 304.59 496.14 304.25 495.83 303.84Z" />
	<path id="Layer" class="shp2" d="M498.23 302.04C498.33 302.16 498.44 302.26 498.57 302.34C498.7 302.42 498.84 302.47 498.98 302.5C499.13 302.53 499.28 302.54 499.43 302.52C499.58 302.49 499.72 302.45 499.85 302.38L535 283.55C535.09 283.5 535.17 283.45 535.24 283.38C535.31 283.32 535.38 283.25 535.43 283.17C535.49 283.1 535.54 283.01 535.57 282.92C535.61 282.84 535.64 282.74 535.65 282.65C535.67 282.55 535.68 282.45 535.67 282.35C535.67 282.24 535.65 282.14 535.62 282.05C535.59 281.95 535.56 281.85 535.51 281.77C535.46 281.68 535.4 281.59 535.33 281.52C532.59 278.44 530.04 275.21 527.69 271.83C525.33 268.46 523.18 264.95 521.24 261.32C519.29 257.69 517.56 253.95 516.06 250.12C514.55 246.29 513.27 242.38 512.22 238.4C512.2 238.3 512.16 238.2 512.12 238.11C512.07 238.02 512.01 237.94 511.95 237.86C511.88 237.78 511.81 237.71 511.73 237.65C511.64 237.59 511.56 237.54 511.46 237.5C511.38 237.46 511.28 237.43 511.19 237.41C511.09 237.4 511 237.39 510.9 237.39C510.81 237.4 510.71 237.41 510.62 237.44C510.53 237.46 510.44 237.5 510.35 237.55L475.21 256.38C475.08 256.45 474.96 256.54 474.86 256.65C474.76 256.77 474.68 256.9 474.62 257.03C474.56 257.17 474.53 257.32 474.53 257.47C474.52 257.62 474.54 257.77 474.59 257.91C475.98 261.86 477.53 265.76 479.22 269.59C480.91 273.42 482.74 277.19 484.72 280.88C486.7 284.58 488.82 288.19 491.07 291.72C493.33 295.25 495.72 298.69 498.23 302.04Z" />
	<path id="Layer" class="shp5" d="M612.59 298.82L585.07 309.28L578.35 290.61C577.91 289.38 577.68 288.09 577.69 286.78C577.69 285.47 577.93 284.18 578.38 282.95C578.84 281.72 579.5 280.59 580.35 279.59C581.2 278.6 582.21 277.76 583.35 277.11L583.35 277.11C584.5 276.46 585.76 276.02 587.06 275.81C588.37 275.6 589.7 275.62 591 275.87C592.29 276.12 593.54 276.6 594.66 277.29C595.79 277.98 596.79 278.86 597.61 279.9L612.59 298.82Z" />
	<path id="Layer" class="shp5" d="M542.58 372.78C542.29 372.58 542.03 372.34 541.79 372.08C541.55 371.82 541.34 371.54 541.16 371.23C540.98 370.93 540.83 370.6 540.72 370.27C540.61 369.93 540.54 369.58 540.5 369.23C536.97 336.32 539.43 310.57 548.01 290.5C548.76 288.77 549.7 287.14 550.82 285.62C551.94 284.11 553.23 282.73 554.66 281.51C556.09 280.28 557.65 279.22 559.32 278.35C560.99 277.48 562.75 276.8 564.57 276.32L586.82 275.19L586.94 275.25C589.43 276.47 591.71 278.09 593.7 280.03C595.68 281.97 597.34 284.22 598.61 286.69C599.89 289.16 600.75 291.82 601.19 294.56C601.62 297.3 601.61 300.1 601.16 302.84C594 321.7 588.01 341.34 592.58 357.18C592.67 357.52 592.74 357.85 592.76 358.2C592.79 358.54 592.78 358.88 592.74 359.23C592.7 359.57 592.62 359.9 592.52 360.23C592.41 360.56 592.27 360.87 592.09 361.17C591.93 361.46 591.73 361.73 591.51 361.97C591.29 362.22 591.04 362.45 590.77 362.65C590.51 362.84 590.22 363.01 589.92 363.15C589.62 363.29 589.3 363.4 588.98 363.48L546.6 373.56C546.26 373.64 545.91 373.68 545.56 373.69C545.2 373.7 544.85 373.67 544.51 373.6C544.16 373.54 543.82 373.43 543.5 373.29C543.18 373.16 542.87 372.98 542.58 372.78Z" />
	<path id="Layer" class="shp7" d="M579.4 266.88C565.81 266.88 554.84 255.91 554.84 242.32C554.84 228.74 565.81 217.76 579.4 217.76C592.98 217.76 603.96 228.74 603.96 242.32C603.96 255.91 592.98 266.88 579.4 266.88Z" />
	<path id="Layer" class="shp0" d="M511.24 261.78L492.1 270.23C491.74 270.38 491.35 270.47 490.96 270.48C490.57 270.49 490.17 270.42 489.81 270.28C489.44 270.14 489.1 269.92 488.82 269.65C488.53 269.38 488.31 269.05 488.15 268.69L487.67 267.62C487.51 267.26 487.43 266.87 487.42 266.48C487.41 266.08 487.48 265.69 487.62 265.33C487.76 264.96 487.98 264.62 488.25 264.34C488.52 264.05 488.85 263.82 489.21 263.66L508.35 255.21C508.71 255.06 509.1 254.97 509.49 254.96C509.88 254.95 510.27 255.02 510.64 255.16C511.01 255.31 511.34 255.52 511.63 255.79C511.91 256.06 512.14 256.39 512.3 256.75L512.78 257.82C512.94 258.18 513.02 258.57 513.03 258.96C513.04 259.36 512.97 259.75 512.83 260.12C512.69 260.48 512.47 260.82 512.2 261.1C511.93 261.39 511.6 261.62 511.24 261.78Z" />
	<path id="Layer" class="shp0" d="M518.24 274.78L499.1 283.23C498.74 283.38 498.35 283.47 497.96 283.48C497.57 283.49 497.17 283.42 496.81 283.28C496.44 283.14 496.1 282.92 495.82 282.65C495.53 282.38 495.31 282.05 495.15 281.69L494.67 280.62C494.51 280.26 494.43 279.87 494.42 279.48C494.41 279.08 494.48 278.69 494.62 278.33C494.76 277.96 494.98 277.62 495.25 277.34C495.52 277.05 495.85 276.82 496.21 276.66L515.35 268.21C515.71 268.06 516.1 267.97 516.49 267.96C516.88 267.95 517.27 268.02 517.64 268.16C518.01 268.31 518.34 268.52 518.63 268.79C518.91 269.06 519.14 269.39 519.3 269.75L519.78 270.82C519.94 271.18 520.02 271.57 520.03 271.96C520.04 272.36 519.97 272.75 519.83 273.12C519.69 273.48 519.47 273.82 519.2 274.1C518.93 274.39 518.6 274.62 518.24 274.78Z" />
	<path id="Layer" class="shp7" d="M533.01 325.55L490.33 291.89C490.25 291.92 490.16 291.95 490.07 291.97C489.99 292 489.9 292.03 489.82 292.05C489.73 292.08 489.64 292.1 489.56 292.13C489.47 292.15 489.38 292.17 489.29 292.19C488.54 292.37 487.78 292.47 487.01 292.48C486.23 292.5 485.46 292.43 484.71 292.29C483.95 292.14 483.21 291.92 482.5 291.62C481.79 291.32 481.11 290.94 480.48 290.5C479.84 290.06 479.25 289.55 478.72 288.99C478.19 288.42 477.73 287.8 477.33 287.13C476.93 286.47 476.6 285.76 476.36 285.03C476.11 284.3 475.94 283.54 475.85 282.77C475.71 281.54 475.77 280.3 476.04 279.1C476.31 277.89 476.78 276.74 477.43 275.69C478.08 274.65 478.9 273.71 479.86 272.94C480.82 272.16 481.9 271.55 483.06 271.13C484.52 270.61 486.07 270.4 487.62 270.52C489.16 270.63 490.67 271.08 492.03 271.82C493.39 272.56 494.58 273.58 495.52 274.81C496.46 276.04 497.13 277.46 497.49 278.97C497.51 279.09 497.54 279.21 497.56 279.33C497.59 279.45 497.61 279.57 497.63 279.69C497.64 279.81 497.66 279.93 497.68 280.05C497.69 280.18 497.7 280.3 497.71 280.42L540.2 304.93L550.77 298.84L562.48 314.17L546.06 325.87C545.11 326.55 544.05 327.06 542.93 327.4C541.82 327.74 540.65 327.9 539.48 327.88C538.31 327.85 537.16 327.63 536.06 327.24C534.96 326.84 533.93 326.27 533.01 325.55L533.01 325.55Z" />
	<path id="Layer" class="shp5" d="M567.69 318.95L543.34 302.39L554.78 286.18C555.53 285.12 556.47 284.19 557.54 283.44C558.62 282.7 559.82 282.15 561.08 281.82C562.34 281.49 563.66 281.38 564.96 281.51C566.26 281.63 567.53 281.98 568.71 282.54L568.71 282.54C569.9 283.11 570.99 283.89 571.91 284.84C572.83 285.78 573.58 286.89 574.11 288.09C574.65 289.3 574.97 290.6 575.05 291.92C575.13 293.24 574.98 294.56 574.6 295.83L567.69 318.95Z" />
	<path id="Layer" class="shp3" d="M570.39 238.67C564.08 242.99 555.79 247.43 549.34 242.83C545.11 239.8 543.77 234.21 545.49 229.3C548.58 220.47 557.06 216.59 565.17 213.61C575.72 209.73 587.2 206.65 598.08 209.43C608.97 212.2 618.59 222.74 616.62 233.8C615.04 242.69 606.65 250.09 607.84 259.05C609.04 268.06 619.18 272.8 628.13 274.41C637.07 276.03 647.09 276.54 653.52 282.97C661.72 291.17 659.67 305.82 651.95 314.48C644.23 323.14 632.59 327.06 621.3 329.73C606.34 333.26 590.17 335.12 575.97 329.25C561.76 323.39 550.71 307.6 554.83 292.79C556.56 286.54 560.66 281.25 564.61 276.11C568.57 270.96 572.58 265.58 574.09 259.27C575.34 254.01 574.41 247.9 570.93 243.96C570.61 243.61 570.35 243.22 570.16 242.8C569.96 242.37 569.84 241.92 569.78 241.46C569.73 241 569.75 240.53 569.84 240.07C569.94 239.61 570.1 239.17 570.33 238.77L570.39 238.67Z" />
	<path id="Layer" class="shp8" d="M109.07 358C105.92 359.11 102.64 359.81 99.31 360.08C95.98 360.35 92.63 360.2 89.34 359.62C86.05 359.04 82.85 358.04 79.81 356.64C76.78 355.25 73.93 353.47 71.35 351.35C58.14 340.26 54 322 50.63 305.08C47.3 288.4 43.98 271.72 40.66 255.04L61.53 269.41C76.54 279.75 91.89 290.42 102.28 305.39C112.67 320.36 117.21 340.79 108.86 356.99" />
	<path id="Layer" class="shp6" d="M107.29 418.58C109.4 403.19 111.57 387.6 110.09 372.05C108.77 358.24 104.56 344.75 95.98 333.69C94.85 332.23 93.65 330.81 92.39 329.46C91.13 328.1 89.81 326.8 88.44 325.56C87.07 324.31 85.65 323.13 84.17 322.01C82.7 320.89 81.17 319.84 79.61 318.85C77.97 317.82 76.46 320.41 78.09 321.44C80.79 323.14 83.35 325.06 85.74 327.16C88.13 329.27 90.36 331.56 92.39 334.01C94.43 336.47 96.27 339.08 97.89 341.82C99.51 344.57 100.92 347.43 102.09 350.4C107.32 363.69 108.16 378.17 107.26 392.29C106.71 400.83 105.56 409.31 104.4 417.78C104.35 417.97 104.34 418.17 104.37 418.36C104.4 418.55 104.46 418.74 104.56 418.91C104.65 419.08 104.78 419.23 104.93 419.35C105.08 419.47 105.26 419.57 105.44 419.62C105.63 419.68 105.83 419.69 106.03 419.66C106.22 419.64 106.41 419.58 106.58 419.48C106.75 419.38 106.9 419.25 107.02 419.1C107.14 418.94 107.23 418.77 107.29 418.58L107.29 418.58Z" />
	<path id="Layer" class="shp8" d="M86.94 391.35C85.59 393.4 83.98 395.28 82.15 396.92C80.32 398.56 78.29 399.97 76.11 401.1C73.92 402.22 71.6 403.07 69.2 403.6C66.8 404.14 64.34 404.37 61.89 404.28C49.2 403.68 38.63 394.83 29.11 386.42L0.96 361.56L19.59 360.67C32.99 360.03 46.74 359.43 59.5 363.57C72.26 367.7 84.03 377.64 86.37 390.85" />
	<path id="Layer" class="shp6" d="M113.26 427.42C103.09 409.43 91.3 389.44 70.22 383.05C68.76 382.6 67.28 382.23 65.79 381.93C64.29 381.63 62.78 381.4 61.26 381.25C59.74 381.09 58.22 381 56.69 380.99C55.17 380.98 53.64 381.04 52.12 381.18C50.2 381.34 50.68 384.3 52.6 384.14C55.13 383.93 57.68 383.94 60.21 384.16C62.74 384.38 65.24 384.82 67.7 385.47C70.16 386.12 72.55 386.98 74.86 388.04C77.17 389.09 79.39 390.35 81.49 391.78C89.63 397.33 95.97 405.03 101.34 413.21C104.63 418.21 107.57 423.43 110.52 428.64C111.46 430.31 114.21 429.11 113.26 427.42L113.26 427.42Z" />
	<path id="Layer" class="shp6" d="M127.55 444.36C127.38 442.38 126.94 440.44 126.24 438.58C125.55 436.73 124.6 434.98 123.43 433.37C122.26 431.77 120.87 430.34 119.32 429.12C117.76 427.89 116.04 426.88 114.21 426.12L114.21 415.72L96.76 415.72L96.76 426.45C95.02 427.25 93.39 428.27 91.92 429.5C90.44 430.72 89.14 432.14 88.04 433.7C86.93 435.27 86.04 436.97 85.38 438.77C84.73 440.57 84.31 442.45 84.15 444.36L80.04 492.04L131.65 492.04L127.55 444.36Z" />
</svg>